<?xml version="1.0" encoding="utf-8"?>
<?xml-stylesheet type="text/xsl" href="rss1.xsl"?>
<rss version="2.0" xmlns:atom="http://www.w3.org/2005/Atom" xmlns:content="http://purl.org/rss/1.0/modules/content/" xmlns:dc="http://purl.org/dc/elements/1.1/" xmlns:media="http://search.yahoo.com/mrss/">
<channel>
 <title>Getty</title>
 <link>http://www.gettyimg.com/</link>
 <atom:link href="http://www.gettyimg.com/" rel="self" type="application/rss+xml" />

 
                <item>
                <title><![CDATA[【Cinema Center】MOVIE - Cabin.Fever.Patient.Zero.2014.1080p.ROKU.WEB-DL.AAC2.0.H.264-Samuel]]></title>
                <link><![CDATA[https://sharemania.us/threads/cabin-fever-patient-zero-2014-1080p-roku-web-dl-aac2-0-h-264-samuel.247465/]]></link>
                <description><![CDATA[<article>
<blockquote class="messageText SelectQuoteContainer ugc baseHtml">
<div style="text-align: center"><b><span style="font-size: 26px">Cabin Fever: Patient Zero</span></b><br>
<img src="https://i.imgur.com/ea1p533.jpg" class="bbCodeImage LbImage" alt="[​IMG]" data-url="https://i.imgur.com/ea1p533.jpg" style=""><br>
<b><a href="https://i.imgur.com/PKKGLCx.jpeg" target="_blank" class="externalLink" rel="nofollow">Alternate Artwork 1</a></b> | <b><a href="https://i.imgur.com/Bp7PMPT.jpeg" target="_blank" class="externalLink" rel="nofollow">Alternate Artwork 2</a></b> | <b><a href="https://i.imgur.com/BsdWqQz.jpeg" target="_blank" class="externalLink" rel="nofollow">Alternate Artwork 3</a></b> | <b><a href="https://i.imgur.com/JAnbMNl.jpeg" target="_blank" class="externalLink" rel="nofollow">Alternate Artwork 4</a></b> | <b><a href="https://i.imgur.com/9t8X7T8.jpeg" target="_blank" class="externalLink" rel="nofollow">Poster 1</a></b> | <b><a href="https://i.imgur.com/KwaZLrU.jpeg" target="_blank" class="externalLink" rel="nofollow">Poster 2</a></b> | <b><a href="https://i.imgur.com/CnKEoJT.jpeg" target="_blank" class="externalLink" rel="nofollow">Poster 3</a></b> | <b><a href="https://i.imgur.com/ibkFADP.jpeg" target="_blank" class="externalLink" rel="nofollow">Thumbnail</a></b> | <b><a href="https://i.imgur.com/rVxQTt1.jpeg" target="_blank" class="externalLink" rel="nofollow">Key Art</a></b><br>
<br>
2014 | TVMA | Horror • Suspense • Thrillers<br>
Sean Astin, Currie Graham, Ryan Donowho<br>
<b>Directed By:</b> Kaare Andrews<br>
<br>
<div class="bbCodeBlock bbCodeQuote">
<aside>
<blockquote class="quoteContainer"><div class="quote"><b><span style="font-size: 15px">Description</span></b><br>
Vacationers think they've found the perfect place for a bachelor party, but a deadly, flesh-eating virus is waiting to infect them.</div><div class="quoteExpand">Click to expand...</div></blockquote>
</aside>
</div>
<div class="bbCodeBlock bbCodeQuote">
<aside>
<blockquote class="quoteContainer"><div class="quote"><b><span style="font-size: 15px">Trailers</span></b><br>
<span data-s9e-mediaembed="googledrive" style="display:inline-block;width:100%;max-width:640px"><span style="display:block;overflow:hidden;position:relative;padding-bottom:75%"><iframe allowfullscreen="" loading="lazy" scrolling="no" src="//drive.google.com/file/d/1DgS1f-CkrHi6-YxQ5FK3WA1fJr0QeOFc/preview" style="border:0;height:100%;left:0;position:absolute;width:100%"></iframe></span></span></div><div class="quoteExpand quoteCut">Click to expand...</div></blockquote>
</aside>
</div>
<div class="bbCodeBlock bbCodeQuote">
<aside>
<blockquote class="quoteContainer"><div class="quote"><b><span style="font-size: 15px">More Information</span></b><br>
<b>Cast:</b> Sean Astin, Currie Graham, Ryan Donowho, Brando Eaton, Jillian Murray, Mitch Ryan, Lydia Hearst, Solly Duran, Claudette Lali<br>
<b>Genres:</b> Horror, Suspense, Thrillers<br>
<b>Directors:</b> Kaare Andrews<br>
<br>
<b>Captions:</b> English [Closed caption]<br>
<b>Audio track:</b> English (Original)</div><div class="quoteExpand">Click to expand...</div></blockquote>
</aside>
</div>
<div class="bbCodeBlock bbCodeQuote">
<aside>
<blockquote class="quoteContainer"><div class="quote"><span style="font-size: 15px"><b>Source</b></span><br>
<img src="https://i.imgur.com/sxdbEA9.png" class="bbCodeImage LbImage" alt="[​IMG]" data-url="https://i.imgur.com/sxdbEA9.png" style=""></div><div class="quoteExpand">Click to expand...</div></blockquote>
</aside>
</div>
<div class="bbCodeBlock bbCodeQuote">
<aside>
<blockquote class="quoteContainer"><div class="quote"><b><span style="font-size: 15px">Release Name</span></b><br>
Cabin.Fever.Patient.Zero.2014.1080p.ROKU.WEB-DL.AAC2.0.H.264-Samuel<br>
Trailer.Cabin.Fever.Patient.Zero.2014.720p.ROKU.WEB-DL.AAC2.0.H.264-Samuel</div><div class="quoteExpand">Click to expand...</div></blockquote>
</aside>
</div>
<div class="ToggleTriggerAnchor bbCodeSpoilerContainer">
<button type="button" class="button bbCodeSpoilerButton ToggleTrigger Tooltip JsOnly" data-target="> .SpoilerTarget"><span>Spoiler: <span class="SpoilerTitle">Media Information</span></span></button>
<div class="SpoilerTarget bbCodeSpoilerText"><b><span style="text-decoration: underline">Cabin Fever: Patient Zero:</span></b><br>
General<br>
Complete name : Cabin.Fever.Patient.Zero.2014.1080p.ROKU.WEB-DL.AAC2.0.H.264-Samuel.mkv<br>
Format : Matroska<br>
Format version : Version 4<br>
File size : 3.40 GiB<br>
Duration : 1 h 34 min<br>
Overall bit rate mode : Variable<br>
Overall bit rate : 5 133 kb/s<br>
Frame rate : 23.976 FPS<br>
Encoded date : 2024-06-17 09:52:59 UTC<br>
Writing application : mkvmerge v85.0 ('Shame For You') 64-bit<br>
Writing library : libebml v1.4.5 + libmatroska v1.7.1<br>
<br>
Video<br>
ID : 1<br>
Format : AVC<br>
Format/Info : Advanced Video Codec<br>
Format profile : High@L4<br>
Format settings : CABAC / 3 Ref Frames<br>
Format settings, CABAC : Yes<br>
Format settings, Reference frames : 3 frames<br>
Codec ID : V_MPEG4/ISO/AVC<br>
Duration : 1 h 34 min<br>
Bit rate mode : Variable<br>
Bit rate : 5 003 kb/s<br>
Maximum bit rate : 5 495 kb/s<br>
Width : 1 920 pixels<br>
Height : 1 080 pixels<br>
Display aspect ratio : 16:9<br>
Frame rate mode : Constant<br>
Frame rate : 23.976 (24000/1001) FPS<br>
Color space : YUV<br>
Chroma subsampling : 4:2:0<br>
Bit depth : 8 bits<br>
Scan type : Progressive<br>
Bits/(Pixel*Frame) : 0.101<br>
Stream size : 3.32 GiB (97%)<br>
Default : Yes<br>
Forced : No<br>
Color range : Limited<br>
Color primaries : BT.709<br>
Transfer characteristics : BT.709<br>
Matrix coefficients : BT.709<br>
<br>
Audio<br>
ID : 2<br>
Format : AAC LC SBR<br>
Format/Info : Advanced Audio Codec Low Complexity with Spectral Band Replication<br>
Commercial name : HE-AAC<br>
Format settings : Explicit<br>
Codec ID : A_AAC-2<br>
Duration : 1 h 34 min<br>
Bit rate : 128 kb/s<br>
Channel(s) : 2 channels<br>
Channel layout : L R<br>
Sampling rate : 48.0 kHz<br>
Frame rate : 23.438 FPS (2048 SPF)<br>
Compression mode : Lossy<br>
Stream size : 86.9 MiB (2%)<br>
Language : English<br>
Default : Yes<br>
Forced : No<br>
<br>
Text<br>
ID : 3<br>
Format : UTF-8<br>
Codec ID : S_TEXT/UTF8<br>
Codec ID/Info : UTF-8 Plain Text<br>
Duration : 1 h 33 min<br>
Bit rate : 53 b/s<br>
Frame rate : 0.210 FPS<br>
Count of elements : 1174<br>
Stream size : 36.3 KiB (0%)<br>
Title : SDH<br>
Language : English<br>
Default : No<br>
Forced : No<br>
<br>
<b><span style="text-decoration: underline">Trailer - Cabin Fever: Patient Zero:</span></b><br>
General<br>
Complete name : Trailer.Cabin.Fever.Patient.Zero.2014.720p.ROKU.WEB-DL.AAC2.0.H.264-Samuel.mkv<br>
Format : Matroska<br>
Format version : Version 4<br>
File size : 21.6 MiB<br>
Duration : 1 min 47 s<br>
Overall bit rate mode : Variable<br>
Overall bit rate : 1 682 kb/s<br>
Frame rate : 23.976 FPS<br>
Encoded date : 2024-06-20 20:39:24 UTC<br>
Writing application : mkvmerge v85.0 ('Shame For You') 64-bit<br>
Writing library : libebml v1.4.5 + libmatroska v1.7.1<br>
<br>
Video<br>
ID : 1<br>
Format : AVC<br>
Format/Info : Advanced Video Codec<br>
Format profile : High@L3.1<br>
Format settings : CABAC / 3 Ref Frames<br>
Format settings, CABAC : Yes<br>
Format settings, Reference frames : 3 frames<br>
Codec ID : V_MPEG4/ISO/AVC<br>
Duration : 1 min 47 s<br>
Bit rate mode : Variable<br>
Bit rate : 1 552 kb/s<br>
Maximum bit rate : 2 622 kb/s<br>
Width : 1 280 pixels<br>
Height : 720 pixels<br>
Display aspect ratio : 16:9<br>
Frame rate mode : Constant<br>
Frame rate : 23.976 (24000/1001) FPS<br>
Color space : YUV<br>
Chroma subsampling : 4:2:0<br>
Bit depth : 8 bits<br>
Scan type : Progressive<br>
Bits/(Pixel*Frame) : 0.070<br>
Stream size : 19.9 MiB (92%)<br>
Default : Yes<br>
Forced : No<br>
<br>
Audio<br>
ID : 2<br>
Format : AAC LC SBR<br>
Format/Info : Advanced Audio Codec Low Complexity with Spectral Band Replication<br>
Commercial name : HE-AAC<br>
Format settings : Explicit<br>
Codec ID : A_AAC-2<br>
Duration : 1 min 47 s<br>
Bit rate : 128 kb/s<br>
Channel(s) : 2 channels<br>
Channel layout : L R<br>
Sampling rate : 48.0 kHz<br>
Frame rate : 23.438 FPS (2048 SPF)<br>
Compression mode : Lossy<br>
Stream size : 1.64 MiB (8%)<br>
Language : English<br>
Default : Yes<br>
Forced : No</div>
</div><br>
<b>Screenshots</b><br>
<img src="https://i.imgur.com/U9fbOFM.png" class="bbCodeImage LbImage" alt="[​IMG]" data-url="https://i.imgur.com/U9fbOFM.png" style=""><br>
<b><a href="https://imgur.com/a/KPeECUg" target="_blank" class="externalLink" rel="nofollow">View Trailer Screenshot</a></b><br>
<br>
<b>Download</b><br>
<div class="bbCodeBlock bbCodeVfcHH HiddenContent">
<div class="attribution type">Hidden Content:</div>
<blockquote>You must reply before you can see the hidden data contained here.</blockquote>
</div></div>
<div class="messageTextEndMarker">&nbsp;</div>
</blockquote>
</article>]]></description>
                <author><![CDATA[Samuel]]></author>
                </item>

                </channel></rss>